<?xml version="1.0" standalone="no"?>
<!DOCTYPE svg PUBLIC "-//W3C//DTD SVG 20010904//EN"
 "http://www.w3.org/TR/2001/REC-SVG-20010904/DTD/svg10.dtd">
<svg version="1.0" xmlns="http://www.w3.org/2000/svg"
 width="846.000000pt" height="840.000000pt" viewBox="0 0 846.000000 840.000000"
 preserveAspectRatio="xMidYMid meet">
<metadata>
Created by potrace 1.16, written by Peter Selinger 2001-2019
</metadata>
<g transform="translate(0.000000,840.000000) scale(0.100000,-0.100000)"
fill="#D6AC48" stroke="none">
<path d="M4000 7870 c-176 -8 -233 -15 -292 -36 -21 -7 -92 -18 -158 -24 -86
-8 -135 -18 -172 -35 -29 -12 -84 -26 -123 -30 -46 -5 -84 -15 -111 -31 -22
-13 -63 -27 -90 -30 -27 -4 -73 -20 -103 -35 -30 -16 -61 -29 -70 -29 -9 0
-36 -11 -61 -24 -25 -13 -60 -27 -78 -31 -18 -4 -45 -17 -60 -29 -15 -13 -43
-26 -63 -30 -20 -3 -46 -17 -58 -30 -13 -13 -38 -27 -57 -31 -19 -3 -44 -17
-56 -30 -11 -13 -35 -27 -52 -31 -17 -4 -46 -19 -64 -35 -18 -16 -41 -29 -51
-29 -10 0 -26 -9 -37 -21 -10 -11 -32 -27 -49 -35 -16 -7 -61 -39 -99 -69 -38
-30 -74 -55 -80 -55 -7 0 -24 -12 -38 -27 -15 -16 -42 -40 -60 -55 -18 -16
-50 -43 -72 -60 -151 -127 -348 -324 -417 -417 -15 -20 -44 -54 -65 -76 -44
-46 -65 -73 -130 -170 -26 -38 -60 -85 -76 -103 -15 -18 -28 -37 -28 -43 0 -6
-11 -25 -24 -42 -13 -18 -27 -42 -30 -54 -4 -11 -18 -28 -31 -37 -18 -12 -25
-26 -25 -47 0 -21 -9 -40 -29 -58 -17 -16 -32 -43 -36 -65 -4 -21 -16 -46 -27
-56 -11 -10 -26 -39 -33 -64 -8 -26 -23 -58 -34 -72 -11 -13 -22 -44 -26 -67
-4 -23 -17 -58 -30 -77 -13 -19 -27 -53 -31 -75 -4 -22 -17 -60 -30 -85 -12
-25 -26 -65 -29 -90 -4 -25 -18 -65 -30 -90 -14 -28 -25 -72 -29 -116 -3 -43
-16 -93 -30 -125 -20 -43 -26 -78 -31 -174 -4 -66 -15 -158 -26 -205 -31 -139
-39 -216 -39 -395 0 -185 11 -298 39 -415 11 -41 22 -131 25 -199 5 -101 10
-133 31 -180 15 -33 29 -90 34 -138 5 -52 16 -94 29 -115 11 -18 25 -58 30
-89 6 -31 20 -71 31 -90 11 -19 23 -52 26 -74 4 -22 18 -56 30 -75 13 -19 26
-54 30 -77 4 -23 15 -53 25 -66 10 -13 28 -47 39 -76 11 -29 26 -61 34 -70 8
-9 20 -33 26 -53 7 -21 17 -41 23 -44 5 -3 19 -27 30 -53 10 -25 28 -55 38
-66 10 -11 21 -31 25 -45 4 -14 19 -39 34 -56 24 -29 47 -64 80 -123 8 -15 41
-56 73 -94 32 -37 58 -71 58 -76 0 -25 89 -126 286 -324 164 -164 263 -256
312 -289 15 -10 47 -34 72 -53 25 -19 60 -45 78 -56 17 -12 32 -25 32 -31 0
-5 19 -18 43 -28 24 -11 52 -28 62 -40 10 -11 24 -20 31 -20 7 0 29 -13 47
-30 19 -16 42 -30 50 -30 9 0 31 -13 49 -29 18 -16 47 -32 65 -35 17 -4 43
-18 57 -31 15 -13 44 -29 65 -35 21 -5 46 -18 55 -29 10 -10 33 -22 52 -26 19
-3 50 -16 69 -29 18 -13 51 -26 72 -29 21 -4 53 -18 72 -31 21 -15 54 -27 87
-32 30 -3 64 -14 77 -24 26 -21 89 -40 132 -40 17 0 53 -11 80 -24 28 -13 73
-26 100 -30 28 -4 95 -18 150 -31 55 -12 134 -26 175 -30 41 -3 126 -13 188
-21 153 -19 559 -19 717 1 66 8 154 18 195 23 126 15 353 62 392 83 20 10 70
24 110 29 46 7 85 19 108 34 21 15 58 27 93 31 39 4 66 14 86 31 16 13 49 28
74 33 25 4 58 17 73 28 16 12 48 26 70 32 22 6 49 19 58 30 10 10 32 22 50 25
18 4 43 17 55 30 13 13 37 27 55 30 18 4 43 17 56 31 12 13 37 27 54 31 17 3
40 14 51 24 29 27 138 100 149 100 5 0 26 15 47 33 21 17 56 46 79 62 40 29
97 73 153 118 34 27 410 400 452 449 54 62 70 82 90 114 53 84 76 114 95 124
11 6 22 21 26 35 3 13 14 31 25 40 10 10 23 32 29 50 6 19 21 40 34 49 13 8
27 27 31 43 6 26 24 58 84 151 13 20 28 50 34 67 6 16 21 43 34 58 12 16 23
39 23 51 0 13 12 41 26 62 15 21 33 61 40 88 7 26 20 57 30 67 9 10 21 42 25
70 5 29 19 68 33 88 17 24 27 57 32 99 4 41 15 76 31 98 18 27 26 58 33 130 6
56 18 110 29 133 12 23 24 76 30 137 5 54 18 144 28 199 25 144 25 713 0 860
-9 55 -22 145 -28 200 -6 58 -19 115 -30 136 -10 20 -23 79 -29 130 -8 64 -19
107 -35 134 -13 22 -26 67 -30 102 -4 41 -15 72 -30 94 -14 17 -27 53 -31 78
-3 25 -17 62 -30 81 -12 19 -27 55 -33 78 -5 24 -18 54 -29 65 -11 12 -24 39
-27 60 -4 21 -18 50 -30 65 -12 15 -25 41 -29 58 -4 17 -18 42 -31 54 -14 13
-27 38 -31 56 -3 18 -15 41 -26 51 -18 16 -39 51 -91 150 -10 19 -24 36 -33
40 -8 3 -24 22 -35 42 -44 80 -68 114 -117 169 -51 57 -107 123 -150 178 -66
85 -157 173 -337 328 -196 168 -224 191 -289 231 -18 11 -46 30 -62 43 -82 65
-108 81 -135 87 -16 4 -34 15 -39 25 -5 10 -27 24 -47 30 -21 7 -49 23 -63 35
-14 13 -43 28 -66 34 -22 6 -49 20 -59 31 -10 11 -34 22 -54 26 -20 4 -47 17
-61 29 -14 13 -41 26 -60 30 -19 4 -53 18 -75 30 -22 13 -56 26 -75 30 -19 4
-53 18 -75 30 -22 13 -62 26 -90 30 -27 4 -68 18 -90 30 -26 16 -64 26 -110
31 -42 3 -88 15 -116 29 -35 18 -76 26 -170 35 -68 6 -153 20 -188 31 -49 15
-115 21 -290 29 -124 5 -237 9 -251 8 -14 -1 -99 -4 -190 -8z m-204 -218 c29
-19 36 -52 20 -105 -19 -65 -33 -238 -46 -577 -6 -146 -15 -282 -22 -303 -10
-33 -9 -43 9 -75 12 -20 34 -44 49 -52 16 -8 55 -35 88 -60 32 -25 68 -52 80
-60 13 -8 73 -66 134 -127 61 -62 116 -113 122 -113 5 0 58 48 118 108 104
103 240 215 299 245 15 8 43 34 62 57 l34 42 -22 45 c-20 41 -22 72 -36 431
-8 213 -18 416 -21 453 -5 54 -4 68 10 82 22 21 65 22 94 1 15 -10 68 -21 145
-29 83 -8 136 -19 162 -33 22 -11 67 -23 100 -27 33 -4 83 -17 110 -30 28 -12
66 -26 85 -30 19 -4 51 -15 70 -25 19 -10 55 -23 79 -30 24 -6 60 -22 80 -35
20 -13 52 -26 71 -30 19 -4 49 -17 65 -30 17 -12 44 -25 60 -29 17 -4 54 -23
83 -42 55 -37 68 -69 36 -95 -8 -7 -24 -29 -34 -50 -11 -20 -26 -39 -35 -43
-8 -3 -25 -25 -36 -48 -26 -55 -58 -109 -87 -145 -139 -170 -157 -216 -96
-237 33 -12 100 -67 127 -107 39 -55 37 -58 -280 -374 -163 -163 -314 -312
-336 -330 -28 -24 -38 -40 -35 -57 3 -22 6 -23 111 -25 165 -2 346 -22 395
-43 24 -11 60 -22 80 -26 20 -4 49 -13 64 -21 25 -12 30 -11 48 7 11 11 20 23
20 28 0 6 59 72 153 172 13 14 45 57 71 95 64 96 87 126 114 148 12 10 22 24
22 31 0 17 55 101 97 149 18 20 33 42 33 48 0 6 11 25 25 43 14 18 25 37 25
43 0 5 10 20 23 33 12 13 31 40 42 60 38 69 60 103 88 135 15 18 27 40 27 49
0 29 20 56 40 56 11 0 32 -15 47 -32 16 -18 57 -62 93 -99 36 -36 90 -94 120
-129 30 -34 72 -79 93 -100 21 -22 37 -48 37 -61 0 -24 -65 -99 -86 -99 -7 0
-30 -15 -52 -32 -38 -32 -78 -58 -131 -87 -15 -7 -37 -24 -51 -36 -14 -13 -36
-26 -50 -30 -14 -4 -40 -21 -58 -36 -18 -16 -39 -29 -47 -29 -7 0 -26 -11 -42
-24 -16 -14 -43 -28 -59 -32 -16 -3 -39 -16 -52 -28 -22 -20 -55 -39 -148 -85
-22 -11 -51 -29 -65 -39 -13 -11 -41 -25 -61 -31 -20 -7 -47 -20 -60 -30 -13
-10 -39 -22 -58 -26 -45 -9 -70 -32 -70 -62 0 -28 33 -63 60 -63 25 0 70 -21
70 -32 0 -5 17 -16 38 -24 44 -19 178 -155 187 -192 3 -14 20 -41 36 -59 16
-19 29 -45 29 -59 0 -13 7 -40 14 -59 9 -20 16 -75 17 -126 4 -139 43 -129
-474 -129 -289 0 -435 4 -449 11 -33 18 -68 3 -68 -28 0 -20 16 -41 59 -82 32
-31 75 -78 95 -106 20 -27 46 -61 57 -75 34 -42 67 -93 87 -135 10 -22 26 -46
35 -54 9 -7 19 -29 23 -50 4 -20 17 -48 31 -62 16 -18 27 -44 32 -80 4 -33 17
-68 32 -88 24 -32 24 -36 24 -229 l0 -197 -32 -49 c-18 -27 -33 -55 -33 -63 0
-13 -95 -132 -137 -170 -35 -33 -72 -30 -84 7 -6 17 -15 30 -21 30 -5 0 -39
28 -75 63 -148 142 -461 455 -495 495 -27 33 -42 43 -60 40 l-23 -3 0 -195 c0
-178 -2 -200 -22 -248 -12 -30 -27 -78 -33 -107 -6 -30 -19 -64 -29 -77 -10
-13 -27 -43 -38 -68 -11 -25 -27 -51 -36 -59 -28 -22 -21 -71 15 -108 31 -32
34 -33 114 -33 53 0 85 4 91 13 11 13 8 420 -3 474 -6 28 -3 34 17 41 30 11
57 4 69 -18 5 -10 23 -23 40 -28 16 -6 45 -22 62 -35 18 -14 44 -28 58 -32 14
-4 36 -17 50 -30 14 -13 36 -26 49 -30 13 -4 44 -20 69 -36 25 -16 51 -29 57
-29 6 0 22 -11 35 -25 13 -14 44 -31 67 -37 24 -6 48 -18 53 -28 5 -9 27 -22
50 -29 23 -7 62 -23 87 -37 25 -13 51 -24 58 -24 7 0 20 -9 30 -20 10 -11 39
-26 63 -32 24 -6 57 -22 74 -36 30 -26 33 -26 272 -34 132 -4 304 -14 381 -23
130 -15 585 -33 841 -34 92 -1 116 -4 134 -19 34 -28 29 -64 -16 -111 l-39
-40 -425 9 c-256 6 -475 16 -550 25 -247 30 -1654 51 -1685 25 -21 -18 -19
-34 10 -68 21 -26 25 -41 29 -128 4 -83 7 -101 24 -115 17 -13 64 -17 309 -22
708 -16 1745 -49 1921 -61 145 -9 196 -16 203 -27 16 -26 9 -56 -21 -94 -16
-20 -32 -46 -36 -58 -8 -26 -72 -104 -91 -112 -8 -2 -42 2 -76 10 -34 7 -161
19 -282 25 -121 6 -290 18 -375 26 -211 20 -454 33 -641 34 -85 0 -256 6 -380
14 -416 27 -523 30 -536 15 -14 -18 -83 -194 -83 -214 0 -8 -11 -25 -25 -37
-34 -29 -35 -85 -2 -92 12 -3 225 -7 472 -9 373 -4 483 -8 640 -26 129 -14
285 -23 485 -26 262 -5 350 -12 527 -40 63 -11 52 -42 -58 -159 -94 -99 -133
-123 -182 -107 -18 6 -90 15 -162 20 -71 6 -152 18 -180 26 -35 11 -128 19
-310 26 -143 5 -316 16 -385 25 -250 31 -299 34 -556 34 -205 0 -264 -3 -273
-13 -11 -14 14 -95 44 -141 8 -12 19 -51 24 -88 16 -113 -2 -105 248 -112 441
-13 649 -25 758 -45 69 -12 174 -21 281 -24 94 -2 176 -7 182 -11 7 -4 12 -15
12 -24 0 -19 -48 -72 -65 -72 -7 0 -29 -13 -50 -30 -21 -16 -44 -30 -52 -30
-8 0 -29 -14 -46 -32 -38 -38 -113 -60 -160 -48 -17 5 -108 14 -202 19 -100 6
-191 16 -220 26 -86 27 -644 50 -667 27 -6 -6 -14 -46 -18 -90 -6 -57 -16 -93
-36 -129 -27 -48 -27 -51 -12 -75 16 -25 20 -25 175 -32 274 -12 351 -20 368
-36 26 -26 -1 -49 -65 -56 -30 -4 -71 -15 -90 -27 -22 -12 -73 -24 -137 -32
-57 -7 -127 -22 -155 -34 -36 -14 -105 -26 -218 -37 -246 -23 -234 -24 -238 8
-3 21 9 39 56 88 33 33 62 73 65 88 3 15 17 40 30 54 14 15 28 42 32 60 4 18
19 53 34 78 l26 45 0 250 0 250 -26 45 c-15 25 -30 60 -34 78 -4 18 -17 45
-29 60 -13 15 -26 38 -29 52 -4 14 -81 106 -173 205 -91 99 -173 194 -181 210
-9 17 -29 45 -44 63 -16 18 -29 40 -29 50 0 9 -11 35 -25 57 -23 38 -24 48
-24 190 0 142 1 152 24 190 14 22 25 47 25 57 0 9 16 35 35 58 19 23 35 47 35
54 0 11 49 65 243 271 93 99 99 106 109 139 6 17 21 42 33 56 13 14 26 41 30
60 4 19 19 55 34 80 l26 45 0 250 0 250 -26 45 c-15 25 -30 58 -33 74 -4 16
-18 42 -31 58 -13 15 -26 40 -29 55 -6 26 -37 63 -180 213 -28 30 -81 89 -117
130 -124 142 -130 158 -78 186 48 24 76 11 174 -86 50 -49 337 -335 638 -634
600 -597 557 -562 611 -492 37 49 51 162 36 299 -9 77 -17 111 -34 137 -13 19
-27 55 -30 79 -4 23 -17 57 -30 75 -13 17 -27 42 -31 56 -4 14 -18 39 -31 57
-13 17 -24 39 -24 47 0 8 -17 33 -37 54 -21 22 -56 63 -78 92 -78 102 -236
250 -349 326 -17 12 -37 29 -45 38 -7 9 -22 16 -32 16 -30 0 -66 21 -77 45
-23 50 -39 48 638 46 564 -2 634 -1 656 13 28 19 31 48 7 67 -9 8 -23 29 -30
48 -21 50 -84 120 -149 166 -31 22 -69 50 -84 63 -16 12 -54 31 -86 42 -31 11
-63 25 -70 31 -7 6 -40 17 -74 25 -33 8 -71 21 -84 29 -46 30 -411 47 -676 30
-89 -5 -127 -12 -169 -31 -111 -50 -158 -19 -76 50 42 36 682 663 822 806 53
54 71 88 58 110 -3 6 -34 25 -68 43 -60 31 -66 32 -182 31 -99 0 -128 -4 -166
-21 -26 -12 -65 -24 -88 -28 -23 -4 -54 -17 -69 -29 -15 -13 -43 -26 -63 -30
-20 -3 -46 -17 -58 -30 -13 -13 -38 -27 -57 -31 -19 -3 -38 -13 -41 -21 -6
-15 -16 -23 -124 -95 -71 -48 -286 -262 -303 -303 -13 -32 -68 -86 -87 -86
-13 0 -55 45 -84 90 -19 28 -104 127 -142 163 -98 93 -147 132 -230 183 -19
12 -41 30 -49 42 -7 11 -29 23 -47 27 -17 4 -43 17 -57 30 -14 13 -42 28 -62
33 -21 6 -50 20 -64 31 -15 12 -33 21 -41 21 -8 0 -49 12 -91 27 -65 23 -94
27 -187 27 -105 1 -114 -1 -177 -32 -72 -35 -80 -45 -67 -80 11 -28 799 -815
849 -847 44 -28 67 -54 72 -80 5 -31 -54 -32 -116 -2 -42 21 -73 27 -171 33
-288 17 -633 -1 -689 -35 -17 -11 -51 -22 -76 -26 -25 -4 -56 -15 -70 -25 -14
-10 -44 -23 -67 -29 -23 -6 -55 -23 -71 -36 -17 -14 -35 -25 -40 -25 -6 0 -32
-18 -57 -40 -25 -22 -50 -40 -54 -40 -12 0 -88 -105 -116 -161 l-26 -49 26
-26 26 -26 632 3 c590 2 632 1 635 -15 6 -29 -24 -63 -67 -73 -45 -12 -58 -21
-211 -151 -112 -95 -331 -338 -345 -383 -4 -13 -18 -36 -31 -51 -12 -16 -26
-38 -30 -50 -4 -13 -17 -35 -29 -50 -13 -15 -26 -48 -29 -75 -4 -26 -18 -64
-32 -84 -23 -34 -25 -46 -29 -202 -3 -91 -1 -176 4 -189 11 -28 75 -98 89 -98
6 0 17 7 24 16 7 8 224 226 483 485 389 388 475 469 497 469 18 0 31 -8 39
-21 6 -12 48 -58 92 -103 111 -111 201 -214 221 -253 9 -18 20 -33 25 -33 10
0 31 -45 31 -67 0 -10 12 -35 28 -57 26 -38 27 -42 27 -186 0 -145 0 -146 -27
-179 -17 -19 -28 -44 -28 -62 0 -19 -10 -39 -25 -55 -14 -14 -34 -42 -44 -62
-11 -21 -66 -87 -123 -147 -206 -219 -226 -242 -233 -275 -3 -15 -17 -38 -30
-50 -16 -15 -26 -39 -31 -69 -3 -25 -18 -66 -33 -91 -26 -45 -26 -45 -26 -265
0 -220 0 -220 26 -265 15 -25 30 -65 33 -89 4 -28 18 -57 36 -78 17 -19 30
-42 30 -52 0 -28 43 -79 199 -239 79 -81 149 -161 156 -177 8 -17 23 -39 34
-49 11 -10 23 -35 27 -55 3 -20 18 -54 33 -75 25 -38 26 -44 26 -182 -1 -138
-2 -143 -28 -181 -15 -22 -27 -51 -27 -66 0 -15 -11 -39 -25 -54 -13 -16 -45
-55 -69 -88 -25 -33 -83 -100 -130 -150 -47 -49 -86 -94 -86 -98 0 -4 -19 -17
-43 -27 -41 -18 -46 -18 -212 -1 -116 13 -184 25 -215 39 -25 11 -81 23 -125
26 -52 5 -99 16 -134 32 -29 13 -66 24 -82 24 -61 0 -107 36 -80 63 13 13 119
22 361 33 162 7 190 16 190 63 0 15 -13 53 -30 84 -19 36 -30 71 -30 96 0 22
-4 51 -10 65 l-10 26 -152 0 c-210 -1 -442 -17 -508 -35 -30 -9 -127 -20 -215
-25 -88 -5 -177 -12 -198 -16 -65 -10 -123 4 -168 42 -22 19 -47 34 -54 34 -7
0 -19 7 -26 16 -7 9 -33 26 -58 38 -24 11 -53 33 -65 49 -19 25 -19 28 -3 44
14 14 44 17 184 20 100 2 215 12 283 23 175 28 189 29 590 41 268 7 379 14
387 22 7 7 16 35 19 62 4 28 17 68 30 91 13 22 24 50 24 62 0 12 7 37 16 56
34 70 42 69 -314 63 -244 -3 -353 -9 -472 -25 -86 -12 -271 -26 -415 -31 -171
-7 -279 -16 -315 -26 -30 -8 -111 -20 -180 -26 -69 -5 -142 -15 -162 -20 -54
-14 -88 8 -192 120 -93 99 -104 129 -56 143 76 21 284 38 545 43 197 4 348 12
470 26 149 17 261 22 648 26 393 4 470 7 482 20 22 21 18 38 -15 77 -21 23
-32 49 -36 82 -7 52 -67 172 -90 181 -8 3 -107 0 -221 -6 -268 -15 -580 -28
-918 -41 -148 -6 -335 -17 -415 -24 -80 -8 -242 -20 -360 -26 -118 -6 -245
-17 -282 -25 -38 -8 -74 -12 -82 -9 -18 7 -73 76 -88 111 -6 15 -22 39 -35 53
-55 62 -35 122 41 119 22 -1 109 3 191 10 138 10 1155 42 1867 58 344 7 330 3
333 101 4 129 4 132 30 154 27 23 34 71 13 84 -32 20 -1485 -7 -1688 -31 -75
-9 -295 -19 -550 -25 l-425 -10 -23 28 c-62 72 -66 110 -15 130 16 6 199 15
433 21 223 6 459 18 525 26 66 8 217 17 335 20 267 7 293 10 328 40 15 12 46
28 69 34 23 6 45 16 48 21 7 12 171 90 188 90 8 0 31 14 52 30 21 17 47 30 58
30 11 0 36 12 56 28 36 27 80 53 161 93 25 12 58 32 73 45 16 13 35 24 42 24
7 0 26 11 42 24 15 13 39 27 53 31 14 4 37 18 51 32 19 17 36 24 55 21 25 -3
29 -7 27 -33 -6 -87 -5 -474 1 -484 4 -7 40 -11 90 -11 l84 0 37 41 c40 45 42
75 4 114 -10 12 -29 41 -42 65 -13 25 -31 59 -40 75 -9 17 -17 49 -17 73 0 28
-11 64 -31 104 l-31 62 3 174 c3 147 2 176 -11 184 -12 7 -78 -53 -296 -270
-155 -153 -298 -292 -319 -307 -20 -16 -41 -39 -46 -52 -9 -25 -29 -29 -59
-13 -24 13 -143 156 -165 200 -10 19 -27 47 -39 63 -19 25 -20 41 -19 226 0
194 1 200 25 243 14 23 29 59 33 78 4 19 17 51 30 70 12 19 26 49 30 65 3 17
17 41 29 55 13 14 28 39 33 55 12 37 53 99 93 142 17 18 30 37 30 42 0 6 38
49 85 96 67 68 85 92 85 115 0 32 -20 42 -58 28 -12 -4 -216 -8 -453 -8 -517
-1 -474 -13 -465 130 9 158 21 219 49 248 13 15 33 44 42 65 19 41 140 167
161 167 7 0 31 16 54 35 23 19 52 35 64 35 38 0 66 28 66 64 0 39 -16 56 -62
61 -18 3 -45 14 -61 25 -15 12 -46 28 -68 35 -22 8 -52 24 -66 35 -14 11 -31
20 -39 20 -7 0 -26 11 -42 25 -17 14 -45 31 -64 37 -18 6 -44 21 -58 33 -14
13 -36 26 -50 30 -14 4 -38 18 -53 31 -16 13 -35 24 -42 24 -7 0 -26 11 -42
24 -15 13 -45 31 -65 39 -20 8 -45 23 -55 32 -29 26 -122 85 -133 85 -6 0 -22
11 -36 25 -13 13 -34 30 -47 36 -51 27 -107 82 -107 105 0 23 53 85 220 253
47 47 93 98 103 113 22 35 60 60 79 53 8 -3 23 -22 34 -42 10 -19 28 -52 39
-72 11 -21 32 -52 48 -70 15 -18 27 -41 27 -50 0 -10 12 -31 28 -48 26 -29 50
-65 84 -129 10 -18 28 -43 40 -56 13 -14 31 -37 40 -54 10 -16 30 -48 45 -70
16 -23 40 -60 56 -83 15 -22 31 -41 35 -41 9 0 92 -122 92 -135 0 -5 11 -21
25 -35 75 -74 142 -148 157 -172 10 -14 26 -29 37 -33 19 -6 109 18 181 48 45
19 243 39 387 40 87 0 113 3 117 14 8 20 -7 45 -51 83 -21 18 -170 163 -330
323 -236 234 -293 295 -293 316 0 33 98 133 153 156 43 18 49 48 18 82 -10 11
-26 34 -35 51 -9 17 -26 42 -39 56 -43 47 -120 158 -141 203 -8 17 -23 36 -34
42 -11 6 -25 25 -31 43 -6 18 -21 42 -32 54 -24 26 -22 52 6 68 11 6 34 20 50
32 17 11 44 24 60 28 17 4 46 18 65 31 19 13 55 28 78 34 24 5 54 18 65 30 12
11 43 25 69 30 25 6 61 19 80 30 18 10 51 22 72 26 22 4 60 17 85 29 26 13 72
26 105 30 32 3 82 18 111 31 30 15 70 25 96 25 69 1 178 19 207 35 29 15 80
19 98 7z m-2604 -1861 c7 -10 31 -28 53 -40 76 -42 120 -70 130 -84 5 -8 28
-23 51 -35 22 -11 46 -28 53 -36 8 -9 21 -16 30 -16 10 0 30 -13 46 -30 15
-16 42 -32 59 -36 17 -4 46 -19 64 -35 18 -16 41 -29 51 -29 10 0 30 -9 44
-20 14 -11 42 -27 61 -35 60 -25 146 -85 146 -101 0 -8 -7 -17 -15 -20 -22 -9
-114 15 -160 41 -23 13 -72 27 -116 33 -50 6 -87 17 -105 31 -19 14 -52 23
-94 27 -37 4 -79 15 -98 26 -18 11 -63 28 -100 38 -62 17 -161 49 -223 72 -50
18 -58 81 -13 106 8 5 20 28 25 53 12 52 53 109 79 109 10 0 25 -8 32 -19z
m6149 -12 c16 -17 33 -48 39 -69 6 -21 17 -44 26 -51 38 -32 33 -97 -9 -116
-41 -18 -182 -64 -237 -77 -30 -7 -71 -22 -90 -33 -19 -12 -63 -23 -97 -27
-42 -4 -76 -14 -100 -30 -27 -17 -59 -26 -110 -31 -51 -5 -81 -13 -99 -28 -24
-19 -116 -46 -156 -47 -13 0 -18 8 -18 25 0 19 10 29 39 45 22 11 42 24 45 29
4 5 23 15 44 22 20 7 51 22 67 34 17 13 45 26 63 30 18 4 38 16 45 26 7 11 30
24 51 30 22 6 52 24 67 40 15 16 34 29 42 29 8 0 31 14 52 30 21 17 42 30 48
30 5 0 24 12 42 28 31 26 67 50 126 82 16 8 37 25 49 38 27 29 36 28 71 -9z
m-6370 -768 c30 -15 76 -31 102 -34 26 -4 67 -18 90 -31 23 -13 68 -27 102
-31 33 -4 78 -17 100 -30 25 -15 68 -27 116 -33 41 -5 91 -17 109 -27 19 -10
76 -23 128 -31 101 -14 125 -25 120 -58 -3 -18 -11 -21 -68 -24 -36 -2 -94 2
-130 9 -36 6 -230 17 -431 23 -416 14 -419 14 -419 84 0 40 41 175 61 198 18
22 62 16 120 -15z m6631 17 c26 -20 70 -138 72 -190 2 -73 -10 -80 -151 -85
-441 -14 -655 -24 -700 -33 -29 -6 -86 -10 -125 -8 -65 3 -73 5 -76 24 -5 33
20 44 127 58 59 8 112 21 127 31 16 10 62 21 108 26 57 7 90 16 110 31 18 13
60 26 108 34 44 7 90 21 105 32 16 11 51 23 78 28 27 4 77 20 110 35 67 32 84
35 107 17z m-6742 -864 c71 -25 392 -35 977 -32 292 2 535 0 539 -4 20 -21
-81 -88 -150 -99 -30 -5 -59 -18 -75 -33 -14 -13 -45 -27 -68 -31 -22 -3 -56
-17 -74 -31 -19 -13 -51 -27 -72 -31 -21 -3 -54 -16 -72 -29 -19 -13 -51 -26
-72 -30 -21 -4 -56 -17 -79 -30 -22 -13 -47 -24 -55 -24 -8 0 -41 -13 -74 -28
-33 -16 -78 -32 -100 -36 -22 -4 -58 -18 -80 -31 -22 -13 -62 -27 -90 -31 -27
-3 -68 -17 -90 -29 -22 -13 -65 -26 -95 -30 -30 -3 -69 -15 -87 -27 -43 -26
-202 -59 -226 -46 -25 13 -37 50 -37 112 0 29 -6 75 -14 102 -38 128 -49 383
-19 416 20 22 54 23 113 2z m6852 4 c8 -7 18 -22 20 -34 10 -40 -11 -288 -27
-334 -9 -25 -19 -89 -22 -143 -8 -124 -21 -147 -79 -130 -22 7 -61 15 -89 19
-27 3 -69 17 -91 31 -23 13 -66 26 -95 29 -30 4 -70 16 -89 29 -20 12 -60 26
-90 30 -30 4 -72 18 -92 31 -20 13 -56 27 -80 30 -24 4 -61 17 -83 29 -22 13
-56 26 -75 30 -19 4 -53 17 -75 30 -22 12 -56 25 -76 29 -19 3 -50 17 -67 30
-18 13 -51 27 -74 30 -23 4 -57 18 -74 31 -18 14 -51 28 -75 31 -25 4 -52 17
-64 30 -13 13 -38 25 -67 29 -59 9 -153 64 -153 90 0 19 13 20 530 17 566 -3
901 8 975 32 58 18 92 19 112 4z"/>
<path d="M3896 4372 c-8 -15 -23 -35 -35 -46 -12 -11 -23 -37 -27 -65 -3 -25
-18 -66 -33 -91 -26 -45 -26 -45 -26 -265 0 -219 0 -220 26 -265 14 -25 29
-65 33 -89 4 -24 17 -57 29 -72 12 -15 30 -39 40 -53 23 -33 32 -33 65 2 177
185 184 194 178 224 -3 16 -17 44 -31 62 -24 32 -25 38 -25 187 0 147 1 156
24 190 43 63 43 80 -4 135 -87 101 -163 174 -181 174 -10 0 -25 -12 -33 -28z"/>
<path d="M4416 3038 c-110 -118 -118 -141 -68 -212 26 -38 27 -43 27 -181 0
-137 -1 -143 -27 -181 -46 -66 -45 -84 3 -140 23 -27 49 -56 58 -65 9 -9 35
-37 59 -63 24 -25 51 -46 61 -46 25 0 87 77 96 120 4 19 19 55 34 80 l26 45 0
250 0 250 -26 45 c-14 25 -29 58 -33 75 -10 42 -74 125 -96 125 -10 0 -60 -45
-114 -102z"/>
<path d="M3903 1863 c-9 -16 -27 -40 -40 -54 -14 -15 -27 -46 -32 -76 -4 -28
-18 -68 -32 -89 -23 -38 -24 -44 -24 -259 l0 -220 27 -45 c14 -25 29 -65 33
-90 4 -25 17 -57 29 -72 11 -15 29 -38 39 -52 10 -14 23 -26 29 -26 6 0 29 21
52 47 22 26 70 76 105 111 57 58 62 67 57 95 -4 18 -18 48 -31 67 -24 34 -25
43 -25 186 0 146 1 150 27 189 44 65 38 91 -46 184 -77 85 -126 131 -142 131
-4 0 -16 -12 -26 -27z"/>
</g>
</svg>
